<svg xmlns="http://www.w3.org/2000/svg" style="display:none">
  <symbol id="logo-mark" viewBox="0 0 48 48">
    <path d="M10 12.5C10 10.6 11.6 9 13.5 9H34.5C36.4 9 38 10.6 38 12.5V36" fill="none" stroke="currentColor" stroke-width="1.4" stroke-linecap="round" stroke-linejoin="round"/>
    <path d="M12 35.5C12 33.6 13.6 32 15.5 32H36" fill="none" stroke="currentColor" stroke-width="1.4" stroke-linecap="round" stroke-linejoin="round"/>
    <path d="M16 14H32M16 20H28" fill="none" stroke="currentColor" stroke-width="1.4" stroke-linecap="round"/>
  </symbol>

  <symbol id="icon-toggle" viewBox="0 0 24 24">
    <path d="M4 7H20M4 12H20M4 17H20" fill="none" stroke="currentColor" stroke-width="1.4" stroke-linecap="round"/>
  </symbol>

  <symbol id="icon-arrow" viewBox="0 0 24 24">
    <path d="M5 12h14M13 5l7 7-7 7" fill="none" stroke="currentColor" stroke-width="1.4" stroke-linecap="round" stroke-linejoin="round"/>
  </symbol>

  <symbol id="icon-check" viewBox="0 0 24 24">
    <path d="M5 12l4 4 10-10" fill="none" stroke="currentColor" stroke-width="1.4" stroke-linecap="round" stroke-linejoin="round"/>
  </symbol>

  <symbol id="icon-book" viewBox="0 0 24 24">
    <path d="M5 6.5C5 5.1 6.1 4 7.5 4H18.5V20H7.5C6.1 20 5 18.9 5 17.5V6.5Z" fill="none" stroke="currentColor" stroke-width="1.4" stroke-linecap="round" stroke-linejoin="round"/>
    <path d="M9 8H15M9 12H14" fill="none" stroke="currentColor" stroke-width="1.4" stroke-linecap="round"/>
  </symbol>

  <symbol id="icon-shelf" viewBox="0 0 24 24">
    <path d="M4 6H20M4 18H20M6 6V18M12 6V18M18 6V18" fill="none" stroke="currentColor" stroke-width="1.4" stroke-linecap="round"/>
  </symbol>

  <symbol id="icon-tag" viewBox="0 0 24 24">
    <path d="M3 12l9 9 9-9-9-9H6a3 3 0 0 0-3 3v6Z" fill="none" stroke="currentColor" stroke-width="1.4" stroke-linecap="round" stroke-linejoin="round"/>
    <circle cx="9" cy="9" r="1.5" fill="currentColor"/>
  </symbol>
</svg>
